<?xml version="1.0" encoding="UTF-8" standalone="no"?>
<!-- Created with Inkscape (http://www.inkscape.org/) -->

<svg
   xmlns:dc="http://purl.org/dc/elements/1.1/"
   xmlns:cc="http://creativecommons.org/ns#"
   xmlns:rdf="http://www.w3.org/1999/02/22-rdf-syntax-ns#"
   xmlns:svg="http://www.w3.org/2000/svg"
   xmlns="http://www.w3.org/2000/svg"
   xmlns:sodipodi="http://sodipodi.sourceforge.net/DTD/sodipodi-0.dtd"
   xmlns:inkscape="http://www.inkscape.org/namespaces/inkscape"
   width="800"
   height="800"
   id="svg2"
   version="1.1"
   inkscape:version="0.48.4 r9939"
   sodipodi:docname="action_icon_export.svg">
  <defs
     id="defs4" />
  <sodipodi:namedview
     id="base"
     pagecolor="#ffffff"
     bordercolor="#666666"
     borderopacity="1.0"
     inkscape:pageopacity="0.0"
     inkscape:pageshadow="2"
     inkscape:zoom="0.335"
     inkscape:cx="423.8806"
     inkscape:cy="371.18951"
     inkscape:document-units="px"
     inkscape:current-layer="layer1"
     showgrid="false"
     inkscape:window-width="702"
     inkscape:window-height="402"
     inkscape:window-x="0"
     inkscape:window-y="0"
     inkscape:window-maximized="0"
     inkscape:object-paths="true"
     inkscape:object-nodes="true"
     inkscape:snap-global="false"
     showguides="true"
     inkscape:guide-bbox="true">
    <inkscape:grid
       type="xygrid"
       id="grid2992"
       empspacing="5"
       visible="true"
       enabled="true"
       snapvisiblegridlinesonly="true" />
    <sodipodi:guide
       orientation="1,0"
       position="52.561247,440.08909"
       id="guide2994" />
    <sodipodi:guide
       orientation="1,0"
       position="751.8931,416.03563"
       id="guide2996" />
    <sodipodi:guide
       orientation="0,1"
       position="866.81514,745.65702"
       id="guide2998" />
    <sodipodi:guide
       orientation="0,1"
       position="774.16481,32.071269"
       id="guide3000" />
  </sodipodi:namedview>
  <metadata
     id="metadata7">
    <rdf:RDF>
      <cc:Work
         rdf:about="">
        <dc:format>image/svg+xml</dc:format>
        <dc:type
           rdf:resource="http://purl.org/dc/dcmitype/StillImage" />
        <dc:title />
      </cc:Work>
    </rdf:RDF>
  </metadata>
  <g
     inkscape:label="Ebene 1"
     inkscape:groupmode="layer"
     id="layer1"
     transform="translate(0,-252.36218)">
    <path
       style="fill:#969696;fill-opacity:1;stroke:none"
       d="m 551.32689,523.12532 0,87.3629 -260.85187,0 0,102.79477 260.85187,0 0,87.39102 L 751.80058,648.01379 551.32689,523.12532 z"
       id="rect3008"
       inkscape:connector-curvature="0" />
    <path
       style="font-size:medium;font-style:normal;font-variant:normal;font-weight:normal;font-stretch:normal;text-indent:0;text-align:start;text-decoration:none;line-height:normal;letter-spacing:normal;word-spacing:normal;text-transform:none;direction:ltr;block-progression:tb;writing-mode:lr-tb;text-anchor:start;baseline-shift:baseline;color:#000000;fill:#969696;fill-opacity:1;stroke:none;stroke-width:76.16426086;marker:none;visibility:visible;display:inline;overflow:visible;enable-background:accumulate;font-family:Sans;-inkscape-font-specification:Sans"
       d="m 123.1981,309.78974 c -38.425015,0 -70.44126,31.98809 -70.44126,70.41315 l 0,568.47727 c 0,38.42507 32.016245,70.41314 70.44126,70.41314 l 296.04443,0 c 38.42506,0 70.41316,-31.98807 70.41316,-70.41314 l 0,-172.42086 -68.50173,0 0,95.4021 -299.86727,0 0,-491.45851 c 0,-1.65611 0.25536,-1.91142 1.91141,-1.91142 l 296.04443,0 c 1.65612,0 1.91143,0.25531 1.91143,1.91142 l 0,177.62104 68.50173,0 0,-177.62104 c 0,-38.42506 -31.9881,-70.41315 -70.41316,-70.41315 l -296.04443,0 z m 148.02222,597.09228 c 24.83871,0 44.97447,18.99719 44.97447,42.41655 0,23.41944 -20.13576,42.41655 -44.97447,42.41655 -24.83872,0 -44.97447,-18.99711 -44.97447,-42.41655 0,-23.41936 20.13575,-42.41655 44.97447,-42.41655 z"
       id="rect3013"
       inkscape:connector-curvature="0" />
  </g>
</svg>
