<?xml version="1.0" encoding="UTF-8" standalone="no"?>
<!-- Created with Inkscape (http://www.inkscape.org/) -->

<svg
   xmlns:osb="http://www.openswatchbook.org/uri/2009/osb"
   xmlns:dc="http://purl.org/dc/elements/1.1/"
   xmlns:cc="http://creativecommons.org/ns#"
   xmlns:rdf="http://www.w3.org/1999/02/22-rdf-syntax-ns#"
   xmlns:svg="http://www.w3.org/2000/svg"
   xmlns="http://www.w3.org/2000/svg"
   xmlns:xlink="http://www.w3.org/1999/xlink"
   xmlns:sodipodi="http://sodipodi.sourceforge.net/DTD/sodipodi-0.dtd"
   xmlns:inkscape="http://www.inkscape.org/namespaces/inkscape"
   width="864"
   height="864"
   id="svg2993"
   version="1.1"
   inkscape:version="0.48.4 r9939"
   sodipodi:docname="launcherV3.svg"
   enable-background="new"
   inkscape:export-filename="D:\Projekte\EGH\Duino\BikeHist\Design\Icons\ic_launcher.png"
   inkscape:export-xdpi="53.330002"
   inkscape:export-ydpi="53.330002">
  <defs
     id="defs2995">
    <linearGradient
       id="linearGradient3803">
      <stop
         style="stop-color:#000000;stop-opacity:1;"
         offset="0"
         id="stop3805" />
      <stop
         style="stop-color:#000000;stop-opacity:0;"
         offset="1"
         id="stop3807" />
    </linearGradient>
    <linearGradient
       id="linearGradient4008">
      <stop
         style="stop-color:#49737a;stop-opacity:1;"
         offset="0"
         id="stop4010" />
      <stop
         style="stop-color:#f8f8f8;stop-opacity:0;"
         offset="1"
         id="stop4012" />
    </linearGradient>
    <inkscape:perspective
       sodipodi:type="inkscape:persp3d"
       inkscape:vp_x="7.1526016 : 303.33045 : 1"
       inkscape:vp_y="-49.336713 : 868.94277 : 0"
       inkscape:vp_z="867.04864 : 352.15351 : 1"
       inkscape:persp3d-origin="444.20511 : 202.61421 : 1"
       id="perspective4780" />
    <linearGradient
       id="linearGradient4738">
      <stop
         style="stop-color:#36569c;stop-opacity:1;"
         offset="0"
         id="stop4740" />
      <stop
         id="stop4748"
         offset="0.5"
         style="stop-color:#000000;stop-opacity:0.49803922;" />
      <stop
         style="stop-color:#000000;stop-opacity:0;"
         offset="1"
         id="stop4742" />
    </linearGradient>
    <linearGradient
       id="linearGradient4730"
       osb:paint="solid">
      <stop
         style="stop-color:#000000;stop-opacity:1;"
         offset="0"
         id="stop4732" />
    </linearGradient>
    <pattern
       inkscape:stockid="Checkerboard"
       id="Checkerboard"
       patternTransform="translate(0,0) scale(10,10)"
       height="2"
       width="2"
       patternUnits="userSpaceOnUse"
       inkscape:collect="always">
      <rect
         id="rect6770"
         height="1"
         width="1"
         y="0"
         x="0"
         style="fill:black;stroke:none" />
      <rect
         id="rect6772"
         height="1"
         width="1"
         y="1"
         x="1"
         style="fill:black;stroke:none" />
    </pattern>
    <linearGradient
       id="linearGradient7434">
      <stop
         style="stop-color:#ffffff;stop-opacity:1;"
         offset="0"
         id="stop7436" />
      <stop
         style="stop-color:#ffffff;stop-opacity:0;"
         offset="1"
         id="stop7438" />
    </linearGradient>
    <linearGradient
       id="linearGradient7410"
       osb:paint="solid">
      <stop
         style="stop-color:#ff86ff;stop-opacity:1;"
         offset="0"
         id="stop7412" />
    </linearGradient>
    <linearGradient
       id="linearGradient5970"
       osb:paint="solid">
      <stop
         style="stop-color:#ffffff;stop-opacity:1;"
         offset="0"
         id="stop5972" />
    </linearGradient>
    <filter
       inkscape:collect="always"
       id="filter4100">
      <feGaussianBlur
         inkscape:collect="always"
         stdDeviation="0.864"
         id="feGaussianBlur4102" />
    </filter>
    <linearGradient
       inkscape:collect="always"
       xlink:href="#linearGradient3803"
       id="linearGradient3809"
       x1="40.706715"
       y1="435.56184"
       x2="834.48766"
       y2="435.56184"
       gradientUnits="userSpaceOnUse"
       gradientTransform="translate(-873.15893,2.0352661)" />
  </defs>
  <sodipodi:namedview
     id="base"
     pagecolor="#ffffff"
     bordercolor="#666666"
     borderopacity="1.0"
     inkscape:pageopacity="0"
     inkscape:pageshadow="2"
     inkscape:zoom="0.35641783"
     inkscape:cx="-143.64565"
     inkscape:cy="317.11255"
     inkscape:current-layer="layer4"
     showgrid="true"
     inkscape:document-units="px"
     inkscape:grid-bbox="true"
     inkscape:window-width="1920"
     inkscape:window-height="1025"
     inkscape:window-x="-8"
     inkscape:window-y="-3"
     inkscape:window-maximized="1"
     showguides="true"
     inkscape:guide-bbox="true"
     inkscape:snap-global="true"
     inkscape:snap-object-midpoints="false"
     inkscape:object-nodes="false"
     inkscape:object-paths="true"
     inkscape:snap-page="false"
     inkscape:snap-grids="false"
     inkscape:snap-to-guides="false">
    <sodipodi:guide
       position="409.68477,0"
       orientation="0,864"
       id="guide9059" />
    <sodipodi:guide
       position="864,0"
       orientation="-864,0"
       id="guide9061" />
    <sodipodi:guide
       position="864,864"
       orientation="0,-864"
       id="guide9063" />
    <sodipodi:guide
       position="0,864"
       orientation="864,0"
       id="guide9065" />
  </sodipodi:namedview>
  <metadata
     id="metadata2998">
    <rdf:RDF>
      <cc:Work
         rdf:about="">
        <dc:format>image/svg+xml</dc:format>
        <dc:type
           rdf:resource="http://purl.org/dc/dcmitype/StillImage" />
        <dc:title />
      </cc:Work>
    </rdf:RDF>
  </metadata>
  <g
     id="layer1"
     inkscape:label="Cancas"
     inkscape:groupmode="layer"
     transform="translate(0,800)"
     style="display:none"
     sodipodi:insensitive="true">
    <rect
       style="opacity:0.48484844;fill:url(#Checkerboard);fill-opacity:1;fill-rule:nonzero;stroke:none"
       id="rect9067"
       width="864"
       height="864"
       x="0"
       y="0"
       transform="translate(0,-800)" />
  </g>
  <g
     inkscape:groupmode="layer"
     id="layer2"
     inkscape:label="Hintergrund"
     style="display:inline"
     sodipodi:insensitive="true">
    <rect
       style="fill:#d0ebe9;fill-opacity:1;fill-rule:nonzero;stroke:none"
       id="rect4104"
       width="793.78094"
       height="783.60425"
       x="40.706715"
       y="43.759716"
       ry="61.80547" />
  </g>
  <g
     inkscape:groupmode="layer"
     id="layer5"
     inkscape:label="Bild"
     style="display:inline"
     sodipodi:insensitive="true">
    <path
       style="fill:#35818e;fill-opacity:1;stroke:none"
       d="M 154.7936,506.29481 C 195.81537,659.39015 353.19194,750.22604 506.28729,709.20427 659.38263,668.1825 750.22661,510.83611 709.20484,357.74077 668.18307,204.64543 510.82859,113.77126 357.73325,154.79303 204.6379,195.81481 113.77183,353.19947 154.7936,506.29481 z m 70.21073,-18.81291 c -30.63046,-114.31443 37.23548,-231.81749 151.54991,-262.44795 114.31444,-30.63046 231.8094,37.20529 262.43987,151.51973 28.78243,107.4175 -29.38162,217.64446 -131.35127,255.96811 l -9.60866,-35.86 c -0.23601,-0.88081 -1.14767,-1.40716 -2.02848,-1.17115 l -24.32926,6.51901 c -0.8808,0.23601 -1.40715,1.14767 -1.17114,2.02848 l 9.84321,36.73537 C 368.31619,666.78406 254.9985,599.42167 225.00433,487.4819 z m 165.71665,-44.40364 c 6.10962,22.8014 29.51817,36.31633 52.31957,30.20672 22.80141,-6.10962 36.34652,-29.52626 30.23691,-52.32766 -6.10962,-22.80141 -29.55644,-36.33844 -52.35785,-30.22882 -22.8014,6.10962 -36.30825,29.54835 -30.19863,52.34976 z"
       id="path3805"
       inkscape:connector-curvature="0" />
  </g>
  <g
     inkscape:groupmode="layer"
     id="layer3"
     inkscape:label="Rahmen alt"
     style="display:none"
     sodipodi:insensitive="true">
    <path
       style="fill:#8f7f7f;fill-opacity:1;fill-rule:nonzero;stroke:none;display:inline;filter:url(#filter4100)"
       d="M 61.8125,0 C 27.57227,0 0,27.57227 0,61.8125 l 0,740.375 C 0,836.42773 27.57227,864 61.8125,864 l 740.375,0 C 836.42773,864 864,836.42773 864,802.1875 l 0,-740.375 C 864,27.57227 836.42773,0 802.1875,0 L 61.8125,0 z m 38.0625,46.8125 664.25,0 c 30.52986,0 55.09375,24.563885 55.09375,55.09375 l 0,660.1875 c 0,30.52986 -24.56389,55.09375 -55.09375,55.09375 l -664.25,0 c -30.529865,0 -55.09375,-24.56389 -55.09375,-55.09375 l 0,-660.1875 c 0,-30.529865 24.563885,-55.09375 55.09375,-55.09375 z"
       id="rect4088"
       inkscape:connector-curvature="0" />
  </g>
  <g
     style="display:inline"
     inkscape:label="Rahmen"
     id="g3811"
     inkscape:groupmode="layer"
     sodipodi:insensitive="true">
    <path
       style="fill:#35818e;fill-opacity:1;fill-rule:nonzero;stroke:none"
       d="m 102.5,43.75 c -34.24023,0 -61.78125,27.57227 -61.78125,61.8125 l 0,660 c 0,34.24023 27.54102,61.8125 61.78125,61.8125 l 670.1875,0 c 34.24023,0 61.8125,-27.57227 61.8125,-61.8125 l 0,-660 C 834.5,71.32227 806.92773,43.75 772.6875,43.75 l -670.1875,0 z m 42.65625,49.875 584.875,0 C 759.91457,93.625 784,117.67918 784,147.5625 l 0,576 C 784,753.44582 759.91457,777.5 730.03125,777.5 l -584.875,0 c -29.88332,0 -53.9375,-24.05418 -53.9375,-53.9375 l 0,-576 c 0,-29.88332 24.05418,-53.9375 53.9375,-53.9375 z"
       id="rect3813"
       inkscape:connector-curvature="0" />
  </g>
  <g
     style="display:inline"
     inkscape:label="Verlauf"
     id="g3799"
     inkscape:groupmode="layer"
     sodipodi:insensitive="true">
    <rect
       ry="61.80547"
       y="45.795074"
       x="-832.45227"
       height="783.60425"
       width="793.78094"
       id="rect3801"
       style="opacity:0.2;fill:url(#linearGradient3809);fill-opacity:1;fill-rule:nonzero;stroke:none"
       transform="matrix(0,-1,1,0,0,0)" />
  </g>
  <g
     inkscape:groupmode="layer"
     id="layer4"
     inkscape:label="Pro"
     sodipodi:insensitive="true"
     style="display:none">
    <text
       xml:space="preserve"
       style="font-size:200px;font-style:normal;font-variant:normal;font-weight:bold;font-stretch:normal;text-align:start;line-height:100%;letter-spacing:0px;word-spacing:0px;writing-mode:lr-tb;text-anchor:start;fill:#dff1f0;fill-opacity:1;stroke:none;font-family:Sans;-inkscape-font-specification:Sans Bold"
       x="406.87909"
       y="827.36395"
       id="text3819"
       sodipodi:linespacing="100%"><tspan
         sodipodi:role="line"
         id="tspan3821"
         x="406.87909"
         y="827.36395">PRO</tspan></text>
  </g>
</svg>
